<?xml version="1.0"?>
<svg xmlns="http://www.w3.org/2000/svg" version="1.1" width="500px" height="500px" viewBox="0 0 200 200" style="overflow:hidden!important;">
  <defs id="SvgjsDefs3426">
    <radialGradient id="SvgjsRadialGradient3492" cx="100" cy="114" r="41" gradientUnits="userSpaceOnUse" class="svga-on-canvas-facehighlight-gradient-single-0">
      <stop id="SvgjsStop3493" stop-opacity="0.5" stop-color="#ffe4d6" offset="0"/>
      <stop id="SvgjsStop3494" stop-opacity="0" stop-color="#f0c7b1" offset="0.9"/>
    </radialGradient>
    <radialGradient id="SvgjsRadialGradient3496" cx="100" cy="54" r="37" gradientUnits="userSpaceOnUse" class="svga-on-canvas-facehighlight-gradient-single-1">
      <stop id="SvgjsStop3497" stop-opacity="0.5" stop-color="#ffe4d6" offset="0"/>
      <stop id="SvgjsStop3498" stop-opacity="0" stop-color="#f0c7b1" offset="0.9"/>
    </radialGradient>
    <radialGradient id="SvgjsRadialGradient3581" cx="-568.659" cy="-521.042" r="59.751" gradientTransform="matrix(0.096 -0.0248 0.0245 0.0961 141.2814 119.9893)" gradientUnits="userSpaceOnUse" class="svga-on-canvas-eyesiris-gradient-left-1">
      <stop id="SvgjsStop3582" stop-opacity="1" stop-color="#ffffff" offset="0"/>
      <stop id="SvgjsStop3583" stop-opacity="0" stop-color="#ffffff" offset="1"/>
    </radialGradient>
    <radialGradient id="SvgjsRadialGradient3585" cx="-582.838" cy="-519.099" r="59.745" gradientTransform="matrix(0.0991 8.856319e-004 -0.0011 0.0991 131.1134 135.9855)" gradientUnits="userSpaceOnUse" class="svga-on-canvas-eyesiris-gradient-left-2">
      <stop id="SvgjsStop3586" stop-opacity="1" stop-color="#ffffff" offset="0"/>
      <stop id="SvgjsStop3587" stop-opacity="0" stop-color="#ffffff" offset="1"/>
    </radialGradient>
    <linearGradient id="SvgjsLinearGradient3591" x1="122.67" y1="88.268" x2="123.606" y2="87.152" gradientTransform="matrix(1 0 0 1 -52 0)" gradientUnits="userSpaceOnUse" class="svga-on-canvas-eyesiris-gradient-left-5">
      <stop id="SvgjsStop3592" stop-opacity="1" stop-color="#ffffff" offset="0"/>
      <stop id="SvgjsStop3593" stop-opacity="0" stop-color="#ffffff" offset="1"/>
    </linearGradient>
    <linearGradient id="SvgjsLinearGradient3595" x1="127.212" y1="82.296" x2="126.463" y2="83.189" gradientTransform="matrix(1 0 0 1 -52 0)" gradientUnits="userSpaceOnUse" class="svga-on-canvas-eyesiris-gradient-left-6">
      <stop id="SvgjsStop3596" stop-opacity="1" stop-color="#ffffff" offset="0"/>
      <stop id="SvgjsStop3597" stop-opacity="0" stop-color="#ffffff" offset="1"/>
    </linearGradient>
    <linearGradient id="SvgjsLinearGradient3599" x1="129.636" y1="79.822" x2="127.91" y2="81.879" gradientTransform="matrix(1 0 0 1 -52 0)" gradientUnits="userSpaceOnUse" class="svga-on-canvas-eyesiris-gradient-left-7">
      <stop id="SvgjsStop3600" stop-opacity="1" stop-color="#ffffff" offset="0"/>
      <stop id="SvgjsStop3601" stop-opacity="0" stop-color="#ffffff" offset="1"/>
    </linearGradient>
    <radialGradient id="SvgjsRadialGradient3604" cx="-568.654" cy="-521.042" r="59.752" gradientTransform="matrix(0.096 -0.0248 0.0245 0.0961 193.2804 119.9894)" gradientUnits="userSpaceOnUse" class="svga-on-canvas-eyesiris-gradient-right-1">
      <stop id="SvgjsStop3605" stop-opacity="1" stop-color="#ffffff" offset="0"/>
      <stop id="SvgjsStop3606" stop-opacity="0" stop-color="#ffffff" offset="1"/>
    </radialGradient>
    <radialGradient id="SvgjsRadialGradient3608" cx="-582.833" cy="-519.102" r="59.747" gradientTransform="matrix(0.0991 8.856319e-004 -0.0011 0.0991 183.1126 135.9856)" gradientUnits="userSpaceOnUse" class="svga-on-canvas-eyesiris-gradient-right-2">
      <stop id="SvgjsStop3609" stop-opacity="1" stop-color="#ffffff" offset="0"/>
      <stop id="SvgjsStop3610" stop-opacity="0" stop-color="#ffffff" offset="1"/>
    </radialGradient>
    <linearGradient id="SvgjsLinearGradient3614" x1="122.67" y1="88.268" x2="123.606" y2="87.152" gradientUnits="userSpaceOnUse" class="svga-on-canvas-eyesiris-gradient-right-5">
      <stop id="SvgjsStop3615" stop-opacity="1" stop-color="#ffffff" offset="0"/>
      <stop id="SvgjsStop3616" stop-opacity="0" stop-color="#ffffff" offset="1"/>
    </linearGradient>
    <linearGradient id="SvgjsLinearGradient3618" x1="127.212" y1="82.296" x2="126.463" y2="83.189" gradientUnits="userSpaceOnUse" class="svga-on-canvas-eyesiris-gradient-right-6">
      <stop id="SvgjsStop3619" stop-opacity="1" stop-color="#ffffff" offset="0"/>
      <stop id="SvgjsStop3620" stop-opacity="0" stop-color="#ffffff" offset="1"/>
    </linearGradient>
    <linearGradient id="SvgjsLinearGradient3622" x1="129.636" y1="79.822" x2="127.91" y2="81.879" gradientUnits="userSpaceOnUse" class="svga-on-canvas-eyesiris-gradient-right-7">
      <stop id="SvgjsStop3623" stop-opacity="1" stop-color="#ffffff" offset="0"/>
      <stop id="SvgjsStop3624" stop-opacity="0" stop-color="#ffffff" offset="1"/>
    </linearGradient>
    <linearGradient id="SvgjsLinearGradient3630" x1="100" y1="142" x2="100" y2="139" gradientUnits="userSpaceOnUse" class="svga-on-canvas-mouth-gradient-single-0">
      <stop id="SvgjsStop3631" stop-opacity="1" stop-color="#e8b9a0" offset="0.1"/>
      <stop id="SvgjsStop3632" stop-opacity="1" stop-color="#e1ac8f" offset="1"/>
    </linearGradient>
    <radialGradient id="SvgjsRadialGradient3648" cx="100" cy="225" r="250" gradientUnits="userSpaceOnUse" class="svga-on-canvas-backs-gradient-single-1">
      <stop id="SvgjsStop3649" stop-opacity="0" stop-color="#774f38" offset="0"/>
      <stop id="SvgjsStop3650" stop-opacity="1" stop-color="#683e26" offset="1"/>
    </radialGradient>
    <radialGradient id="SvgjsRadialGradient3679" cx="126.452" cy="84.563" r="15.179" gradientTransform="matrix(-0.9148 0.0479 0.0523 0.9986 184.4328 -6.6013)" gradientUnits="userSpaceOnUse" class="svga-on-canvas-eyesback-gradient-left-0">
      <stop id="SvgjsStop3680" stop-opacity="1" stop-color="#ffffff" offset="0"/>
      <stop id="SvgjsStop3681" stop-opacity="1" stop-color="#fdfefe" offset="0.544"/>
      <stop id="SvgjsStop3682" stop-opacity="1" stop-color="#f6f8f9" offset="0.74"/>
      <stop id="SvgjsStop3683" stop-opacity="1" stop-color="#eaeff2" offset="0.879"/>
      <stop id="SvgjsStop3684" stop-opacity="1" stop-color="#d9e3e8" offset="0.992"/>
      <stop id="SvgjsStop3685" stop-opacity="1" stop-color="#d8e2e7" offset="1"/>
    </radialGradient>
    <radialGradient id="SvgjsRadialGradient3687" cx="126.017" cy="84.585" r="15.179" gradientTransform="matrix(0.9148 0.0479 -0.0523 0.9986 15.5672 -6.6013)" gradientUnits="userSpaceOnUse" class="svga-on-canvas-eyesback-gradient-right-0">
      <stop id="SvgjsStop3688" stop-opacity="1" stop-color="#ffffff" offset="0"/>
      <stop id="SvgjsStop3689" stop-opacity="1" stop-color="#fdfefe" offset="0.544"/>
      <stop id="SvgjsStop3690" stop-opacity="1" stop-color="#f6f8f9" offset="0.74"/>
      <stop id="SvgjsStop3691" stop-opacity="1" stop-color="#eaeff2" offset="0.879"/>
      <stop id="SvgjsStop3692" stop-opacity="1" stop-color="#d9e3e8" offset="0.992"/>
      <stop id="SvgjsStop3693" stop-opacity="1" stop-color="#d8e2e7" offset="1"/>
    </radialGradient>
    <radialGradient id="SvgjsRadialGradient3695" cx="126.452" cy="84.563" r="15.179" gradientTransform="matrix(-0.9148 0.0479 0.0523 0.9986 184.4328 -6.6013)" gradientUnits="userSpaceOnUse" class="svga-on-canvas-eyesfront-gradient-left-0">
      <stop id="SvgjsStop3696" stop-opacity="1" stop-color="#ffffff" offset="0"/>
      <stop id="SvgjsStop3697" stop-opacity="1" stop-color="#fdfefe" offset="0.544"/>
      <stop id="SvgjsStop3698" stop-opacity="1" stop-color="#f6f8f9" offset="0.74"/>
      <stop id="SvgjsStop3699" stop-opacity="1" stop-color="#eaeff2" offset="0.879"/>
      <stop id="SvgjsStop3700" stop-opacity="1" stop-color="#d9e3e8" offset="0.992"/>
      <stop id="SvgjsStop3701" stop-opacity="1" stop-color="#d8e2e7" offset="1"/>
    </radialGradient>
    <radialGradient id="SvgjsRadialGradient3705" cx="122.781" cy="80.48" fx="136.429" fy="80.114" r="16.914" gradientTransform="matrix(0.99 0.1411 0.1085 -0.7608 -53.0622 124.3787)" gradientUnits="userSpaceOnUse" class="svga-on-canvas-eyesfront-gradient-left-3">
      <stop id="SvgjsStop3706" stop-opacity="1" stop-color="#e1ac8f" offset="0"/>
      <stop id="SvgjsStop3707" stop-opacity="0.3" stop-color="#e1ac8f" offset="0.7"/>
      <stop id="SvgjsStop3708" stop-opacity="0" stop-color="#f0c7b1" offset="1"/>
    </radialGradient>
    <radialGradient id="SvgjsRadialGradient3710" cx="70.049" cy="105.782" r="29.51" gradientTransform="matrix(1.0336 0 0 1.0336 -1.9413 1.255)" gradientUnits="userSpaceOnUse" class="svga-on-canvas-eyesfront-gradient-left-4">
      <stop id="SvgjsStop3711" stop-opacity="0" stop-color="#000000" offset="0.95"/>
      <stop id="SvgjsStop3712" stop-opacity="0.2" stop-color="#000000" offset="1"/>
    </radialGradient>
    <radialGradient id="SvgjsRadialGradient3716" cx="126.017" cy="84.585" r="15.179" gradientTransform="matrix(0.9148 0.0479 -0.0523 0.9986 15.5672 -6.6013)" gradientUnits="userSpaceOnUse" class="svga-on-canvas-eyesfront-gradient-right-0">
      <stop id="SvgjsStop3717" stop-opacity="1" stop-color="#ffffff" offset="0"/>
      <stop id="SvgjsStop3718" stop-opacity="1" stop-color="#fdfefe" offset="0.544"/>
      <stop id="SvgjsStop3719" stop-opacity="1" stop-color="#f6f8f9" offset="0.74"/>
      <stop id="SvgjsStop3720" stop-opacity="1" stop-color="#eaeff2" offset="0.879"/>
      <stop id="SvgjsStop3721" stop-opacity="1" stop-color="#d9e3e8" offset="0.992"/>
      <stop id="SvgjsStop3722" stop-opacity="1" stop-color="#d8e2e7" offset="1"/>
    </radialGradient>
    <radialGradient id="SvgjsRadialGradient3726" cx="122.382" cy="80.48" fx="136.03" fy="80.114" r="16.914" gradientTransform="matrix(-0.99 0.1411 -0.1085 -0.7608 252.2674 124.4351)" gradientUnits="userSpaceOnUse" class="svga-on-canvas-eyesfront-gradient-right-3">
      <stop id="SvgjsStop3727" stop-opacity="1" stop-color="#e1ac8f" offset="0"/>
      <stop id="SvgjsStop3728" stop-opacity="0.3" stop-color="#e1ac8f" offset="0.7"/>
      <stop id="SvgjsStop3729" stop-opacity="0" stop-color="#f0c7b1" offset="1"/>
    </radialGradient>
    <radialGradient id="SvgjsRadialGradient3731" cx="70.436" cy="105.782" r="29.51" gradientTransform="matrix(-1.0336 0 0 1.0336 201.9413 1.255)" gradientUnits="userSpaceOnUse" class="svga-on-canvas-eyesfront-gradient-right-4">
      <stop id="SvgjsStop3732" stop-opacity="0" stop-color="#000000" offset="0.95"/>
      <stop id="SvgjsStop3733" stop-opacity="0.2" stop-color="#000000" offset="1"/>
    </radialGradient>
    <linearGradient id="SvgjsLinearGradient3776" x1="100" y1="171" x2="100" y2="131" gradientUnits="userSpaceOnUse" class="svga-on-canvas-chinshadow-gradient-single-0">
      <stop id="SvgjsStop3777" stop-opacity="0.8" stop-color="#e1ac8f" offset="0"/>
      <stop id="SvgjsStop3778" stop-opacity="1" stop-color="#c27b55" offset="0.7"/>
    </linearGradient>
  </defs>
  <g id="svga-group-wrapper">
    <g id="svga-group-backs-single">
      <path id="SvgjsPath3646" d="M225 225H-25V-25h250V225z" fill="#774f38" stroke-width="none" opacity="1" stroke="none"/>
      <path id="SvgjsPath3647" d="M99.093,225h-0.221L-25-23.26V-25H1.992L99.093,225z M58.936-25H34.616l64.735,250h0.193L58.936-25z M-25,146.607v15.437L96.026,225h0.738L-25,146.607z M112.078-25H88.791l10.991,250h0.185L112.078-25z M-25,103.112v21.017L97.442,225h0.412L-25,103.112z M92.652,225H94.6L-25,179.631v12.78L92.652,225z M-25,36.37v33.745L98.278,225h0.281L-25,36.37z M225,162.044v-15.437L103.236,225h0.737L225,162.044z M225,192.411v-12.78L105.4,225h1.947L225,192.411z M225,124.128v-21.016L102.146,225h0.412L225,124.128z M165.383-25h-24.318l-40.609,250h0.193L165.383-25z M225,70.114V36.37L101.44,225h0.281L225,70.114z M225-23.261V-25h-26.992l-97.101,250h0.221L225-23.261z" fill="url(#SvgjsRadialGradient3648)" opacity="1"/>
    </g>
    <g id="svga-group-humanwrap-move" transform="matrix(1,0,0,1,0,0)">
      <g id="svga-group-humanwrap" transform="matrix(1,0,0,1,0,0)">
        <g id="svga-group-hair-back-move" transform="matrix(1,0,0,1,0,0)">
          <g id="svga-group-hair-back" transform="matrix(1,0,0,1,0,0)">
            <path id="SvgjsPath3655" d="M100.5,100.5h-1v-1h1V100.5z" fill="#4e4341" stroke-width="none" opacity="1" stroke="none"/>
          </g>
        </g>
        <g id="svga-group-humanbody-single">
          <path id="SvgjsPath3499" d="M195.417 199.778c-2.196-4.746-8.195-11.779-14.86-13.722 -8.239-2.403-26.837-5.308-33.733-6.923 -5.528-1.296-16.662-11.294-20.564-14.65 -0.7-0.6-1.273-1.839-1.287-2.76 -0.139-10.864 4.195-39.724 4.195-39.724H100 70.833c0 0 4.334 28.859 4.193 39.724 -0.011 0.921-0.587 2.16-1.285 2.76 -3.902 3.356-15.036 13.354-20.564 14.65 -6.897 1.615-25.495 4.619-33.733 7.022 -6.667 1.942-12.664 8.876-14.86 13.622 -3.708 8.008-4.584 22.5-4.584 35h100 100C200 222.278 199.123 207.786 195.417 199.778z" fill="#f0c7b1" stroke-width="none" opacity="1" stroke="none"/>
          <path id="SvgjsPath3500" d="M159.156 184.058c24.342 3.542 34.586 8.708 37.794 50.721H200c0-12.5-0.877-26.992-4.583-35 -2.196-4.746-8.195-11.779-14.86-13.722 -8.239-2.403-26.837-5.308-33.733-6.923 -5.528-1.296-18.242-12.069-21.643-16.35 3.36 4.704 12.791 15.605 21.054 18.46C150.188 182.61 153.48 183.232 159.156 184.058zM53.766 181.244c8.263-2.854 17.693-13.756 21.054-18.46 -3.4 4.28-16.114 15.054-21.643 16.35 -6.896 1.615-25.494 4.619-33.733 7.022 -6.665 1.942-12.664 8.876-14.86 13.622 -3.706 8.008-4.583 22.5-4.583 35h3.05c3.188-41.744 13.475-47.183 37.794-50.721C46.52 183.232 49.813 182.61 53.766 181.244z" fill="#ffe4d6" stroke-width="none" opacity="1" stroke="none"/>
          <path id="SvgjsPath3501" d="M95.646 197.62c0 0-5.074-1.609-7.083-2.379 -10.449-4.009-44.395-6.607-44.395-6.607s35.754 1.419 43.644 2.779c-0.458-4.767-3.017-20.004-3.017-20.004s5.149 16.815 6.409 21.057C91.878 194.734 95.646 197.62 95.646 197.62zM106.445 196.278c-0.089 0.073-0.191 0.168-0.302 0.268C106.256 196.461 106.358 196.372 106.445 196.278zM95.646 197.62c0 0 2.893 2.992 4.347 3.03 1.91 0.051 4.828-2.899 6.151-4.104 -1.265 0.957-4.159 1.391-5.31 1.436C99.504 198.033 95.646 197.62 95.646 197.62zM116.664 190.101c-1.545 0.248-4.386 0.789-4.386 0.789l2.287-14.89c-0.646 3.071-4.474 16.211-8.12 20.278 1.91-1.616 6.158-2.391 8.324-2.704 10.236-1.484 10.232-1.483 41.062-4.94C155.831 188.634 126.76 188.479 116.664 190.101z" fill="#e1ac8f" stroke-width="none" opacity="1" stroke="none"/>
          <path id="SvgjsPath3502" d="M195.417 199.778c-2.196-4.746-8.195-11.779-14.86-13.722 -8.239-2.403-26.837-5.308-33.733-6.923 -5.528-1.296-16.662-11.294-20.564-14.65 -0.7-0.6-1.273-1.839-1.287-2.76 -0.139-10.864 4.195-39.724 4.195-39.724H100 70.833c0 0 4.334 28.859 4.193 39.724 -0.011 0.921-0.587 2.16-1.285 2.76 -3.902 3.356-15.036 13.354-20.564 14.65 -6.897 1.615-25.495 4.619-33.733 7.022 -6.667 1.942-12.664 8.876-14.86 13.622 -3.708 8.008-4.584 22.5-4.584 35h100 100C200 222.278 199.123 207.786 195.417 199.778z" fill="none" stroke="#c27b55" stroke-width="1.5" opacity="1"/>
        </g>
        <g id="svga-group-chinshadow-single">
          <path id="SvgjsPath3775" d="M100.021 171.866c8.183 0 16.871-4.943 24.199-10.675 -0.001-6.702 1.451-19.105 2.652-28.205 -15.382-2.247-38.406-2.279-53.766-0.152 1.184 8.96 2.625 21.206 2.671 28.02C83.119 166.767 91.822 171.866 100.021 171.866z" fill="url(#SvgjsLinearGradient3776)" opacity="1"/>
        </g>
        <g id="svga-group-clothes-single">
          <path id="SvgjsPath3756" d="M83.208 235.787c-42.755 0-73.116-0.341-83.557-0.936 -3.228-41.46 17.049-50.314 25.922-52.197 5.111-1.218 9.139-1.593 12.692-1.923 8.462-0.786 15.16-1.409 30.099-12.227 0.523 0.666 1.8 2.359 4.153 5.55 6.948 9.244 17.385 14.505 28.689 14.505 0.001 0 0.002 0 0.004 0 12.805-0.002 24.814-6.654 33.019-18.271 15.056 9.254 18.229 9.549 25.801 10.25 2.497 0.231 5.604 0.52 9.799 1.21 11.838 1.591 20.825 8.087 26.003 18.786 4.405 9.103 6.021 21.193 4.56 34.087 -11.646 0.646-63.764 1.166-117.175 1.166C83.212 235.787 83.211 235.787 83.208 235.787z" fill="#f3f1f4" stroke-width="none" opacity="1"/>
          <path id="SvgjsPath3757" d="M170.909 182.255c-16.76-2.76-17.282-1.24-36.82-12.64 -16.477 23.799-46.336 23.876-61.12 4.21 -0.313-0.425-4.146-5.627-4.52-6 -21.537 15.697-25.967 10.671-43.18 14.539 -17.198 3.865-28.875 17.4-26.11 52.611 0.01 0.12 0.01 0.229 0.03 0.35 26.152 1.595 181.717 0.986 201.65-0.229C202.268 210.162 200.249 187.03 170.909 182.255zM-0.331 234.966c-0.458-22.065 2.924-46.19 26.26-50.9 17.291-3.49 21.274 1.1 42.39-15.7 1.11 1.66 2.4 3.72 3.84 5.98 13.218 20.3 44.471 23.502 62.05-4 1.851 1.43 4.03 3.02 6.47 4.59 23.186 15.306 60.738-4.709 59.65 59.89C134.92 233.624 65.973 233.646-0.331 234.966z" fill="#cfc8d7" stroke-width="none" opacity="1"/>
          <path id="SvgjsPath3758" d="M107.44 237.709c-2.775 0-10.727 0.208-16.512-0.23l-0.01-0.171c-0.818-18.658 1.129-30.719 4.537-39.288l0.048-0.123 -0.093-0.093c-0.905-0.904-2.425-1.935-4.034-3.025 -1.611-1.093-3.275-2.221-4.336-3.246 0.625-0.732 1.395-1.454 2.348-2.201 0.245-0.125 1.162-0.843 5.974-4.971 0.214-0.184 0.345-0.296 0.362-0.31 0.818-0.178 2.138-0.293 3.738-0.293 2.183 0 4.731 0.221 6.512 0.563 1.561 1.458 3.451 5.329 4.158 7.17 -0.976 2.291-2.128 3.129-3.717 4.284 -0.774 0.563-1.652 1.201-2.652 2.112l-0.083 0.075 0.021 0.111c4.026 20.31 4.027 25.054 4.027 29.642 0.001 2.021 0.001 6.609 0.339 9.985C107.917 237.707 107.704 237.709 107.44 237.709z" fill="#131111" stroke-width="none" opacity="1"/>
          <path id="SvgjsPath3759" d="M110.35 191.495c-0.754-1.995-2.71-5.93-4.28-7.359 -2.876-0.563-7.983-0.843-10.47-0.24 -0.108 0.088-6.248 5.383-6.31 5.26 -0.906 0.708-1.788 1.504-2.52 2.39 2.061 2.076 6.655 4.556 8.5 6.4 -3.65 9.18-5.33 21.59-4.55 39.38 0.01 0.11 0.01 0.23 0.02 0.34 6.756 0.52 16.55 0.331 17.55 0.223 -1.16-11.307 1.438-10.455-4.39-39.853C106.968 195.241 108.865 195.04 110.35 191.495zM105.1 210.535c-0.021-0.05-0.04-0.1-0.051-0.13 2 10.55 1.38 18.632 2.891 26.972 -4.736-0.318-12.014-0.052-16.771-0.052 0.369-7.198 1.188-31.684 4.74-39.74 0.17-0.046 0.339-0.084 0.509-0.125l-1.032 34.736 2.747-35.066c0.02-0.002 0.04-0.005 0.06-0.008l1.801 32.605 0.417-32.734c0.026 0.001 0.051-0.001 0.077 0l4.199 36.355 -2.3-36.137c0.314 0.063 0.629 0.141 0.942 0.233 0.03 0 0.07 0.01 0.1 0.03C103.533 198.476 104.365 205.876 105.1 210.535zM104.219 196.726c-2.774-1.251-6.363-1.026-9.129 0.24 -1.681-1.813-4.08-3.077-7.53-5.391 0.55-0.479 1.26-1.07 2.21-1.81 0.08 0 3.48-2.771 3.54-2.83 0.92-0.84 1.74-1.79 2.52-2.62 2.93-0.12 7.23 0.02 9.82 0.14 1.5 1.876 2.931 4.696 4.01 6.94C107.699 194.266 105.759 195.545 104.219 196.726z" fill="#000000" stroke-width="none" opacity="1"/>
          <path id="SvgjsPath3760" d="M78.196 213.077c-11.534-40.071-9.954-27.403-13.027-43.143 2.028-4.813 7.587-12.618 8.67-13.775l0.08-0.086c2.292 24.007 8.958 13.636 23.784 27.722C89.228 189.449 81.372 204.127 78.196 213.077zM135.364 170.3c-1.448-3.702-8.248-11.669-9.386-12.873 1.424 20.678-15.146 16.551-24.35 26.2 8.812 5.713 17.173 20.66 20.172 29.455C134.653 176.403 132.021 191.215 135.364 170.3z" fill="#f3f1f4" stroke-width="none" opacity="1"/>
          <path id="SvgjsPath3761" d="M125.801 156.967c0 5.137-0.42 9.162-1.262 10.339 -2.443 5.809-13.103 9.853-16.39 11.51 -2.495 1.227-4.942 2.809-6.83 4.85 3.813 2.476 5.705 3.383 12.93 14.44 4.246 7.109 6.539 12.448 7.561 15.64 12.922-35.152 10.657-23.062 13.793-43.507C134.018 166.153 126.801 157.885 125.801 156.967zM121.709 210.676c-2.716-8.644-11.075-22.913-19.43-27.091 3.937-2.957 5.031-3.131 9.729-5.279 14.396-6.42 14.985-12.385 14.138-20.271 1.207 1.423 7.328 8.664 8.896 12.023C131.034 193.116 126.945 192.299 121.709 210.676zM79.199 171.896c-4.408-3.649-3.16-8.162-5.189-16.215 -0.902 1-7.741 8.882-10.016 14.305 7.125 24.375 7.375 22.5 14.185 43.75 3.031-8.905 11.558-24.37 20.24-30.009C91.489 177.401 82.765 174.999 79.199 171.896zM84.659 197.405c-2.221 3.666-4.517 7.48-6.37 13.28 -1.17-7.95-11.17-32.296-12.92-40.95 1.638-3.588 7.771-12.451 8.521-13.165 1.366 7.078 0.066 13.462 5.669 16.995 2.621 1.996 11.104 5.32 17.52 10.36C93.188 186.235 91.094 187.596 84.659 197.405z" fill="#cfc8d7" stroke-width="none" opacity="1"/>
          <path id="SvgjsPath3762" d="M49.857 234.908c-8.87 0-16.864-0.137-23.156-0.396 -0.07-0.556-0.155-1.27-0.257-2.121 -1.053-8.829-3.834-32.147-9.695-47.528 9.497-3.835 25.02-6.691 36.643-8.118 7.833 16.249 26.729 42.336 39.987 57.234 -14.945 0.607-29.971 0.929-43.519 0.929C49.86 234.908 49.859 234.908 49.857 234.908zM150.143 234.908c8.87 0 16.863-0.137 23.156-0.396 0.07-0.556 0.154-1.27 0.256-2.121 1.054-8.829 3.835-32.147 9.695-47.528 -9.497-3.835-25.02-6.691-36.643-8.118 -7.833 16.249-26.729 42.336-39.987 57.234 14.945 0.607 29.971 0.929 43.519 0.929C150.141 234.908 150.141 234.908 150.143 234.908z" fill="#335529" stroke-width="none" opacity="1" stroke="none"/>
          <path id="SvgjsPath3763" d="M32.153 211.959l-10.48-12.96 2.43-16.078 9.723 12.804L32.153 211.959zM47.384 192.569l-11.591-12.686 -1.968 15.841 11.61 12.397L47.384 192.569zM58.817 188.148l-11.708-10.331 0.275 14.752 12.322 11.557L58.817 188.148zM42.32 223.673l-10.167-11.714 -5.018 15.35 11.118 12.987L42.32 223.673zM58.107 219.842l-12.671-11.72 -3.116 15.551 14.234 11.113L58.107 219.842zM73.379 213.533l-13.673-9.407 -1.599 15.716 14.288 11.107L73.379 213.533zM166.174 195.725l9.724-12.804 2.43 16.078 -10.48 12.96L166.174 195.725zM154.564 208.122l11.609-12.397 -1.967-15.841 -11.592 12.686L154.564 208.122zM140.294 204.126l12.321-11.557 0.275-14.752 -11.708 10.331L140.294 204.126zM161.746 240.296l11.119-12.987 -5.019-15.35 -10.167 11.714L161.746 240.296zM143.445 234.786l14.234-11.113 -3.115-15.551 -12.672 11.72L143.445 234.786zM127.605 230.949l14.287-11.107 -1.599-15.716 -13.673 9.407L127.605 230.949z" fill="#44643a" stroke-width="none" opacity="1" stroke="none"/>
          <path id="SvgjsPath3764" d="M53.689 176.205c-10.802 1.308-27.48 4.184-37.58 8.38 0 0.011 0.01 0.021 0.01 0.03 6.68 17.19 9.418 44.907 10.14 50.38 13.662 0.58 38.444 0.678 68.2-0.56C81.652 220.216 61.683 192.972 53.689 176.205zM26.929 234.266c0-8.767-2.644-33.854-9.81-49.33 14.354-4.252 24.106-5.545 36.1-7.931 8.677 20.651 22.083 40.424 38.45 56.45C70.854 232.966 47.735 233.228 26.929 234.266zM105.541 234.436c29.756 1.237 54.538 1.14 68.199 0.56 0.723-5.473 3.461-33.189 10.141-50.38 0-0.01 0.01-0.02 0.01-0.03 -10.1-4.196-26.777-7.072-37.58-8.38C138.317 192.972 118.348 220.216 105.541 234.436zM108.331 233.455c16.367-16.026 29.772-35.799 38.45-56.45 11.993 2.386 21.746 3.679 36.1 7.931 -7.166 15.477-9.811 40.563-9.811 49.33C152.266 233.228 129.146 232.966 108.331 233.455z" fill="#0e2707" stroke-width="none" opacity="1" stroke="none"/>
        </g>
        <g id="svga-group-head" transform="matrix(1,0,0,1,0,0)">
          <g id="svga-group-ears-left-move" transform="matrix(1,0,0,1,0,0)">
            <g id="svga-group-ears-left" transform="matrix(1,0,0,1,0,0)">
              <path id="SvgjsPath3637" d="M45.671 84.344c-1.485-2.462-6.327-9.199-10.031-8.254 -3.012 0.772-2.973 4.971-3.206 7.455 -0.34 3.644-0.464 9.992 0.525 12.568 0.951 2.473 3.96 7.252 5.828 9.075 2.299 2.235 5.97 9.358 6.422 10.097 0.711 1.168 2.137 2.84 4.325 2.708 3.071-0.185 5.724-3.087 5.965-4.485C56.8 105.918 49.536 90.75 45.671 84.344z" fill="#f0c7b1" stroke="#c27b55" stroke-width="1.5" opacity="1"/>
              <path id="SvgjsPath3638" d="M44.2 99.341c-0.143-0.563 0.007-1.513 0.154-2.429 0.133-0.835 0.258-1.624 0.182-2.182 -0.289-2.09-1.915-6.06-2.976-8.212 -1.223-2.476-3.199-5.595-5.679-6.399 -1.024-0.333-1.699 0.065-2.089 0.468 -0.288 0.296-0.353 0.645-0.259 0.687 0.095 0.041 0.307-0.248 0.617-0.519 0.254-0.222-0.508-0.04 0 0 -0.205 1.04-0.865 6.302-0.41 10.143 0.358 3.022 1.05 5.279 1.263 5.617 0.031 0.356 0.083 0.705 0.16 1.043 1.002 4.41 7.518 10.177 9.034 11.82 0.28 0.303 0.574 0.483 0.646 0.409s-0.101-0.373-0.379-0.678c-1.498-1.632-7.971-7.381-8.939-11.635 -1.027-4.514 3.912-11.207 4.699-12.623 0.401 0.665 0.742 1.303 1.004 1.835 0.207 0.417 0.434 0.906 0.67 1.435 -0.463 0.738-5.118 6.127-3.934 10.441 0.438 1.591 3.822 3.642 5.131 4.203 0.72 0.31 0.99 0.772 1.304 1.306 0.364 0.624 0.033 2.229 1.23 2.739 0.244 0.104 0.464 0.146 0.659 0.146 0.338 0 0.594-0.13 0.783-0.284 0.02 0.271 0.019 0.619 0.009 0.941 -0.012 0.418 0.047 0.609 0.148 0.617 0.103 0.009 0.21-0.174 0.223-0.587 0.017-0.51 0.014-1.141-0.077-1.444 -0.269-0.889-1.088-1.894-1.957-2.957C44.563 102.197 44.422 100.213 44.2 99.341zM34.969 95.432c-2.348-6.923 1.283-13.229 1.81-14.179 1.012 0.399 2.562 2.193 3.221 3.235C39.52 85.321 35.067 90.775 34.969 95.432zM45.772 106.464c-1.084-0.462-0.706-1.984-1.056-2.584 -0.318-0.542-0.646-1.102-1.479-1.46 -0.18-0.078-0.379-0.196-0.583-0.332 -2.682-6.075 0.293-8.73 1.039-9.273 0.229 0.742 0.399 1.423 0.476 1.97 0.068 0.5-0.059 1.298-0.181 2.068 -0.153 0.955-0.31 1.944-0.147 2.584 0.244 0.953 0.411 2.97 1.291 4.048 0.781 0.956 1.583 1.942 1.857 2.746C46.871 106.391 46.5 106.775 45.772 106.464z" fill="#c27b55" stroke-width="none" opacity="1" stroke="none"/>
            </g>
          </g>
          <g id="svga-group-ears-right-move" transform="matrix(1,0,0,1,0,0)">
            <g id="svga-group-ears-right" transform="matrix(1,0,0,1,0,0)">
              <path id="SvgjsPath3639" d="M154.066 84.344c1.486-2.462 6.328-9.199 10.031-8.254 3.012 0.772 2.973 4.971 3.207 7.455 0.34 3.644 0.463 9.992-0.525 12.568 -0.951 2.473-3.961 7.252-5.828 9.075 -2.299 2.235-5.971 9.358-6.422 10.097 -0.711 1.168-2.137 2.84-4.326 2.708 -3.07-0.185-5.723-3.087-5.965-4.485C142.938 105.918 150.203 90.75 154.066 84.344z" fill="#f0c7b1" stroke="#c27b55" stroke-width="1.5" opacity="1"/>
              <path id="SvgjsPath3640" d="M154.322 103.243c-0.869 1.063-1.688 2.068-1.957 2.957 -0.092 0.304-0.094 0.935-0.078 1.444 0.014 0.413 0.121 0.596 0.225 0.587 0.102-0.008 0.16-0.199 0.148-0.617 -0.01-0.322-0.012-0.67 0.008-0.941 0.189 0.154 0.445 0.284 0.783 0.284 0.195 0 0.416-0.042 0.66-0.146 1.195-0.511 0.865-2.116 1.229-2.739 0.314-0.534 0.584-0.997 1.305-1.306 1.309-0.561 4.693-2.611 5.131-4.203 1.184-4.314-3.471-9.704-3.934-10.441 0.234-0.529 0.463-1.018 0.668-1.435 0.264-0.532 0.604-1.171 1.006-1.835 0.787 1.416 5.725 8.108 4.699 12.623 -0.969 4.254-7.441 10.003-8.939 11.635 -0.279 0.305-0.453 0.604-0.381 0.678 0.074 0.074 0.367-0.106 0.646-0.409 1.516-1.643 8.031-7.41 9.033-11.82 0.078-0.338 0.131-0.687 0.162-1.043 0.211-0.337 0.904-2.594 1.262-5.617 0.455-3.841-0.205-9.103-0.41-10.143 0.508-0.04-0.254-0.222 0 0 0.311 0.271 0.523 0.56 0.617 0.519 0.094-0.042 0.029-0.39-0.258-0.687 -0.391-0.403-1.066-0.801-2.09-0.468 -2.48 0.804-4.457 3.923-5.68 6.399 -1.061 2.152-2.686 6.122-2.975 8.212 -0.076 0.558 0.049 1.347 0.182 2.182 0.146 0.916 0.297 1.866 0.154 2.429C155.316 100.213 155.176 102.197 154.322 103.243zM159.738 84.488c0.66-1.042 2.209-2.835 3.221-3.235 0.527 0.95 4.158 7.256 1.811 14.179C164.672 90.775 160.219 85.321 159.738 84.488zM152.75 106.229c0.273-0.804 1.076-1.79 1.857-2.746 0.879-1.078 1.047-3.095 1.291-4.048 0.162-0.64 0.006-1.629-0.146-2.584 -0.123-0.77-0.25-1.568-0.182-2.068 0.076-0.547 0.246-1.228 0.475-1.97 0.746 0.543 3.721 3.199 1.039 9.273 -0.203 0.136-0.402 0.254-0.584 0.332 -0.832 0.358-1.16 0.918-1.479 1.46 -0.35 0.6 0.029 2.123-1.055 2.584C153.238 106.775 152.867 106.391 152.75 106.229z" fill="#c27b55" stroke-width="none" opacity="1" stroke="none"/>
            </g>
          </g>
          <g id="svga-group-faceshape-wrap" transform="matrix(1,0,0,1,0,0)">
            <g id="svga-group-faceshape-single">
              <path id="SvgjsPath3772" d="M158.785 78.006l-0.005 0c-0.01 0.046-12.197 40.27-15.879 52.418 -0.715 2.358-1.931 4.551-3.556 6.386 -6.375 7.194-23.768 25.057-39.324 25.057 -15.849 0-33.591-19.045-39.708-26.214 -1.442-1.688-2.507-3.633-3.172-5.765 -3.607-11.551-16.126-51.648-16.137-51.694h-0.001c-1.298-4.992-1.994-10.231-2.002-15.634C38.949 28.536 66.155 0.92 99.773 0.867c33.621-0.053 60.913 27.476 60.964 61.499C160.746 67.769 160.068 73.01 158.785 78.006z" fill="#f0c7b1" stroke-width="none" opacity="1" stroke="none"/>
              <path id="SvgjsPath3773" d="M132.168 10.26c14.31 11.135 23.671 29.457 23.699 50.208 0.009 5.404-0.615 10.645-1.796 15.641l-0.004 0c-0.009 0.046-11.223 40.27-14.608 52.417 -0.658 2.358-1.776 4.551-3.271 6.385 -5.865 7.195-21.866 25.059-36.178 25.059 -14.582 0-30.904-19.047-36.531-26.215 -1.327-1.689-2.306-3.633-2.918-5.764 -3.318-11.552-14.836-51.649-14.846-51.695h-0.001c-1.194-4.992-1.834-10.231-1.842-15.634 -0.029-20.827 9.348-39.239 23.713-50.412C50.392 21.159 38.967 40.508 39.001 62.56c0.008 5.403 0.704 10.643 2.002 15.634h0.001c0.01 0.046 12.53 40.143 16.137 51.694 0.666 2.132 1.73 4.076 3.172 5.765 6.116 7.169 23.858 26.214 39.708 26.214 15.557 0 32.949-17.862 39.324-25.057 1.625-1.835 2.841-4.027 3.556-6.386 3.682-12.148 15.869-52.372 15.879-52.418l0.005 0c1.283-4.997 1.961-10.237 1.952-15.641C160.704 40.389 149.297 21.135 132.168 10.26z" fill="#e8b9a0" stroke-width="none" opacity="1" stroke="none"/>
              <path id="SvgjsPath3774" d="M158.785 78.006l-0.005 0c-0.01 0.046-12.197 40.27-15.879 52.418 -0.715 2.358-1.931 4.551-3.556 6.386 -6.375 7.194-23.768 25.057-39.324 25.057 -15.849 0-33.591-19.045-39.708-26.214 -1.442-1.688-2.507-3.633-3.172-5.765 -3.607-11.551-16.126-51.648-16.137-51.694h-0.001c-1.298-4.992-1.994-10.231-2.002-15.634C38.949 28.536 66.155 0.92 99.773 0.867c33.621-0.053 60.913 27.476 60.964 61.499C160.746 67.769 160.068 73.01 158.785 78.006z" fill="none" stroke="#c27b55" stroke-width="1.5" opacity="1"/>
            </g>
          </g>
          <g id="svga-group-mouth-single-move" transform="matrix(1,0,0,1,0,0)">
            <g id="svga-group-mouth-single" transform="matrix(1,0,0,1,0,0)">
              <path id="SvgjsPath3629" d="M96.227 139.237l8.297-0.207C103.563 143.5 96.884 142.858 96.227 139.237z" fill="url(#SvgjsLinearGradient3630)" opacity="1"/>
              <path id="SvgjsPath3633" d="M96.343 139.52c-0.371-0.05-0.315-0.579 0.08-0.542 0.043 0.006 4.308 0.546 7.878-0.215 0.386-0.075 0.5 0.455 0.13 0.534C101.634 139.895 98.015 139.755 96.343 139.52zM100.083 135.95c-1.503 0-2.96-0.521-4.424-0.776 -1.64-0.287-3.274-0.041-4.915 0.104 -1.676 0.149-5.333-0.013-6.365-0.666 -0.578-0.367-0.47-1.221 0.181-1.449 0.614-0.22 1.571 0.236 2.191 0.347 2.872 0.515 4.384-0.034 6.902-0.118 3.851-0.116 4.26 1.501 9.064 0.53 5.165-1.044 7.491-0.254 11.197-1.37 0.508-0.154 1.112-0.56 1.645-0.286 0.615 0.318 0.585 1.185-0.049 1.464 -3.406 1.502-7.174 0.895-10.955 1.526C103.073 135.502 101.596 135.95 100.083 135.95z" fill="#c27b55" stroke-width="none" opacity="1" stroke="none"/>
            </g>
          </g>
          <g id="svga-group-eyes-left-move" transform="matrix(1,0,0,1,0,0)">
            <g id="svga-group-eyes-left" transform="matrix(1,0,0,1,0,0)">
              <g id="svga-group-eyesback-left">
                <path id="SvgjsPath3678" d="M60.432 80.957c1.226-1.179 9.091-2.674 13.631-2.075 7.183 0.947 13 7.285 13 7.285s-4.836 3.083-13.61 3.56C67.673 90.042 61.86 86.309 60.432 80.957z" fill="url(#SvgjsRadialGradient3679)" opacity="1"/>
              </g>
              <g id="svga-group-eyesiriswrapper-left" transform="matrix(1,0,0,1,0.25,0)">
                <g id="svga-group-eyesiriscontrol-left" transform="matrix(1,0,0,1,0,0)">
                  <g id="svga-group-eyesiris-left" transform="matrix(1,0,0,1,0,0)">
                    <path id="SvgjsPath3736" d="M79.788 85.588c-0.869 3.192-4.162 5.073-7.361 4.196 -3.197-0.876-5.084-4.178-4.214-7.371 0.869-3.195 4.168-5.076 7.365-4.198C78.772 79.09 80.659 82.392 79.788 85.588z" fill="#3e4442" stroke="#0e1613" stroke-width="0.5" opacity="1"/>
                    <path id="SvgjsPath3737" d="M78.855 85.662c-0.849 2.452-3.407 3.881-5.899 3.199 -2.3-0.631-3.752-2.838-3.563-5.171 0.853-0.067 1.787-0.087 2.756-0.04 -0.01 0.033-0.027 0.062-0.036 0.096 -0.306 1.125 0.407 2.305 1.592 2.63 1.189 0.326 2.401-0.326 2.707-1.451 0.039-0.147 0.06-0.294 0.065-0.439C77.29 84.782 78.088 85.165 78.855 85.662z" fill="#535353" stroke-width="none" opacity="1" stroke="none"/>
                    <path id="SvgjsPath3738" d="M74.813 82.21c-1.203-0.344-2.429 0.342-2.739 1.54 -0.311 1.191 0.412 2.438 1.614 2.783 1.204 0.345 2.43-0.342 2.741-1.534C76.742 83.801 76.016 82.555 74.813 82.21zM75.075 86.442c-0.5 0.156-1.017-0.051-1.154-0.462 -0.133-0.411 0.163-0.867 0.667-1.019 0.503-0.156 1.019 0.051 1.157 0.459C75.881 85.831 75.582 86.287 75.075 86.442z" fill="#000000" stroke-width="none" opacity="0.9"/>
                    <path id="SvgjsPath3739" d="M70.811 87.159c-0.37 0.222-0.922 0.023-1.238-0.447 -0.316-0.466-0.269-1.024 0.102-1.247 0.368-0.219 0.925-0.021 1.239 0.446C71.226 86.378 71.181 86.938 70.811 87.159z" fill="#ffffff" stroke-width="none" opacity="0.6"/>
                    <path id="SvgjsPath3740" d="M78.71 83.74c-0.846 0.507-2.117 0.051-2.837-1.02 -0.72-1.072-0.612-2.352 0.234-2.857 0.844-0.509 2.118-0.053 2.834 1.019C79.66 81.954 79.556 83.232 78.71 83.74z" fill="#ffffff" stroke-width="none" opacity="0.8"/>
                  </g>
                </g>
              </g>
              <g id="svga-group-eyesfront-left">
                <path id="SvgjsPath3703" d="M55.132 85c0 13.808 12.668 20.999 18 20.999 9.94 0 18-7.191 18-20.999 0-13.809-8.06-25.001-18-25.001S55.132 71.191 55.132 85zM60.432 80.957c1.226-1.179 9.091-2.674 13.631-2.075 7.183 0.947 13 7.285 13 7.285s-4.836 3.083-13.61 3.56C67.673 90.042 61.86 86.309 60.432 80.957z" fill="#f0c7b1" stroke-width="none" opacity="1" stroke="none"/>
                <path id="SvgjsPath3704" d="M73.981 93.592c9.412 2.223 18.451-1.61 20.194-8.565 1.738-6.956-4.478-14.395-13.892-16.622 -9.414-2.224-18.453 1.609-20.195 8.565C58.35 83.927 64.564 91.365 73.981 93.592zM60.432 80.957c1.226-1.179 9.091-2.674 13.631-2.075 7.183 0.947 13 7.285 13 7.285s-4.836 3.083-13.61 3.56C67.673 90.042 61.86 86.309 60.432 80.957z" fill="url(#SvgjsRadialGradient3705)" opacity="1"/>
                <path id="SvgjsPath3709" d="M60.432 80.957c1.226-1.179 9.091-2.674 13.631-2.075 7.183 0.947 13 7.285 13 7.285s-4.836 3.083-13.61 3.56C67.673 90.042 61.86 86.309 60.432 80.957z" fill="url(#SvgjsRadialGradient3710)" opacity="1"/>
                <path id="SvgjsPath3713" d="M86.632 82.458c-6.502-4.251-4.054-3.09-16.23-6.703 3.344 0.5 9.572 2.066 11.707 3.32C83.272 79.729 85.632 81.584 86.632 82.458z" fill="#c27b55" stroke-width="none" opacity="1" stroke="none"/>
                <path id="SvgjsPath3714" d="M58.853 80.886c1.947 4.926 9.734 13.961 29.285 5.533 -3.097-3.36-11.005-9.113-18.159-9.063C63.986 77.397 60.637 79.265 58.853 80.886zM60.432 81.074c1.226-1.137 9.091-2.58 13.631-2.001 7.183 0.913 13 7.026 13 7.026s-4.836 2.974-13.61 3.434C67.673 89.836 61.86 86.236 60.432 81.074z" fill="#0f190c" stroke-width="none" opacity="1" stroke="none"/>
              </g>
            </g>
          </g>
          <g id="svga-group-eyes-right-move" transform="matrix(1,0,0,1,0,0)">
            <g id="svga-group-eyes-right" transform="matrix(1,0,0,1,0,0)">
              <g id="svga-group-eyesback-right">
                <path id="SvgjsPath3686" d="M139.169 80.957c-1.226-1.179-9.091-2.674-13.631-2.075 -7.183 0.947-13 7.285-13 7.285s4.836 3.083 13.61 3.56C131.928 90.042 137.74 86.309 139.169 80.957z" fill="url(#SvgjsRadialGradient3687)" opacity="1"/>
              </g>
              <g id="svga-group-eyesiriswrapper-right" transform="matrix(1,0,0,1,-0.25,0)">
                <g id="svga-group-eyesiriscontrol-right" transform="matrix(1,0,0,1,0,0)">
                  <g id="svga-group-eyesiris-right" transform="matrix(1,0,0,1,0,0)">
                    <path id="SvgjsPath3741" d="M131.788 85.588c-0.869 3.192-4.162 5.073-7.362 4.196 -3.196-0.876-5.084-4.178-4.214-7.371 0.869-3.195 4.169-5.076 7.365-4.198C130.772 79.09 132.658 82.392 131.788 85.588z" fill="#3e4442" stroke="#0e1613" stroke-width="0.5" opacity="1"/>
                    <path id="SvgjsPath3742" d="M130.855 85.662c-0.849 2.452-3.408 3.881-5.899 3.199 -2.3-0.631-3.753-2.838-3.563-5.171 0.854-0.067 1.787-0.087 2.756-0.04 -0.01 0.033-0.027 0.062-0.036 0.096 -0.306 1.125 0.407 2.305 1.593 2.63 1.189 0.326 2.401-0.326 2.707-1.451 0.038-0.147 0.06-0.294 0.065-0.439C129.29 84.782 130.089 85.165 130.855 85.662z" fill="#535353" stroke-width="none" opacity="1" stroke="none"/>
                    <path id="SvgjsPath3743" d="M126.813 82.21c-1.202-0.344-2.429 0.342-2.738 1.54 -0.312 1.191 0.412 2.438 1.613 2.783 1.204 0.345 2.431-0.342 2.742-1.534C128.741 83.801 128.016 82.555 126.813 82.21zM127.075 86.442c-0.5 0.156-1.018-0.051-1.154-0.462 -0.133-0.411 0.163-0.867 0.667-1.019 0.503-0.156 1.019 0.051 1.157 0.459C127.881 85.831 127.582 86.287 127.075 86.442z" fill="#000000" stroke-width="none" opacity="0.9"/>
                    <path id="SvgjsPath3744" d="M122.812 87.159c-0.37 0.222-0.923 0.023-1.238-0.447 -0.316-0.466-0.27-1.024 0.102-1.247 0.367-0.219 0.926-0.021 1.239 0.446C123.227 86.378 123.181 86.938 122.812 87.159z" fill="#ffffff" stroke-width="none" opacity="0.6"/>
                    <path id="SvgjsPath3745" d="M130.71 83.74c-0.846 0.507-2.116 0.051-2.837-1.02 -0.72-1.072-0.612-2.352 0.234-2.857 0.845-0.509 2.117-0.053 2.834 1.019C131.66 81.954 131.557 83.232 130.71 83.74z" fill="#ffffff" stroke-width="none" opacity="0.8"/>
                  </g>
                </g>
              </g>
              <g id="svga-group-eyesfront-right">
                <path id="SvgjsPath3724" d="M126.469 59.999c-9.94 0-18 11.193-18 25.001 0 13.808 8.06 20.999 18 20.999 7.201 0 18-7.191 18-20.999C144.469 71.191 136.409 59.999 126.469 59.999zM126.148 89.727c-8.774-0.476-13.61-3.56-13.61-3.56s5.817-6.338 13-7.285c4.54-0.6 12.405 0.896 13.631 2.075C137.74 86.309 131.928 90.042 126.148 89.727z" fill="#f0c7b1" stroke-width="none" opacity="1" stroke="none"/>
                <path id="SvgjsPath3725" d="M139.512 76.971c-1.742-6.956-10.781-10.79-20.195-8.565 -9.414 2.227-15.63 9.666-13.892 16.622 1.743 6.955 10.782 10.788 20.194 8.565C135.036 91.365 141.251 83.927 139.512 76.971zM126.148 89.727c-8.774-0.476-13.61-3.56-13.61-3.56s5.817-6.338 13-7.285c4.54-0.6 12.405 0.896 13.631 2.075C137.74 86.309 131.928 90.042 126.148 89.727z" fill="url(#SvgjsRadialGradient3726)" opacity="1"/>
                <path id="SvgjsPath3730" d="M139.169 80.957c-1.226-1.179-9.091-2.674-13.631-2.075 -7.183 0.947-13 7.285-13 7.285s4.836 3.083 13.61 3.56C131.928 90.042 137.74 86.309 139.169 80.957z" fill="url(#SvgjsRadialGradient3731)" opacity="1"/>
                <path id="SvgjsPath3734" d="M112.969 82.458c6.502-4.251 4.054-3.09 16.23-6.703 -3.344 0.5-9.572 2.066-11.707 3.32C116.328 79.729 113.969 81.584 112.969 82.458z" fill="#c27b55" stroke-width="none" opacity="1" stroke="none"/>
                <path id="SvgjsPath3735" d="M129.622 77.355c-7.154-0.05-15.063 5.703-18.159 9.063 19.551 8.428 27.338-0.607 29.285-5.533C138.964 79.265 135.614 77.397 129.622 77.355zM126.148 89.533c-8.774-0.459-13.61-3.434-13.61-3.434s5.817-6.113 13-7.026c4.54-0.579 12.405 0.864 13.631 2.001C137.74 86.236 131.928 89.836 126.148 89.533z" fill="#0f190c" stroke-width="none" opacity="1" stroke="none"/>
              </g>
            </g>
          </g>
          <g id="svga-group-facehighlight-single">
            <path id="SvgjsPath3491" d="M141 113.974c0.035 22.622-18.292 40.994-40.938 41.025 -22.642 0.037-41.028-18.273-41.063-40.9 -0.035-22.62 18.292-41.064 40.937-41.1C122.579 72.964 140.967 91.349 141 113.974z" fill="url(#SvgjsRadialGradient3492)" opacity="1"/>
            <path id="SvgjsPath3495" d="M137.5 53.999c0 20.711-16.789 37.5-37.499 37.5 -20.711 0-37.501-16.789-37.501-37.5s16.79-37.5 37.501-37.5C120.711 16.499 137.5 33.288 137.5 53.999z" fill="url(#SvgjsRadialGradient3496)" opacity="1"/>
          </g>
          <g id="svga-group-eyebrows-left-move" transform="matrix(1,0,0,1,0,0)">
            <g id="svga-group-eyebrows-left-rotate" transform="matrix(1,0,0,1,0,0)">
              <g id="svga-group-eyebrows-left" transform="matrix(1,0,0,1,0,0)">
                <path id="SvgjsPath3625" d="M54 74.189c9.954-9.974 16.761-5.915 30.589-3.264 0.845 0.162 6.32 1.539 5.31 3.469 -0.483 0.924-2.036 0.814-2.903 0.798C73.308 74.936 66.652 65.197 54 74.189z" fill="#2a232b" stroke-width="none" opacity="1"/>
              </g>
            </g>
          </g>
          <g id="svga-group-eyebrows-right-move" transform="matrix(1,0,0,1,0,0)">
            <g id="svga-group-eyebrows-right-rotate" transform="matrix(1,0,0,1,0,0)">
              <g id="svga-group-eyebrows-right" transform="matrix(1,0,0,1,0,0)">
                <path id="SvgjsPath3626" d="M146 74.189c-9.953-9.974-16.761-5.915-30.589-3.264 -0.846 0.162-6.32 1.539-5.311 3.469 0.483 0.924 2.036 0.814 2.903 0.798C126.691 74.936 133.348 65.197 146 74.189z" fill="#2a232b" stroke-width="none" opacity="1"/>
              </g>
            </g>
          </g>
          <g id="svga-group-nose-single-move" transform="matrix(1,0,0,1,0,0)">
            <g id="svga-group-nose-single" transform="matrix(1,0,0,1,0,0)">
              <path id="SvgjsPath3752" d="M109.895 118.829c0.19-0.512 0.307-1.047 0.396-1.584 0.033-0.198-0.229-0.929-0.252-0.697 -0.101 0.941-0.612 2.262-1.6 2.551 -1.133 0.329-1.783-0.056-1.886-1.172 -0.104-1.125 0.297-2.619-0.109-3.665 -0.264-0.676-0.856-1.226-1.464-1.606 0.458 2.04 0.823 4.704-1.128 6.164 0.167 0.199 0.319 0.293 0.467 0.333 -0.153 0.026-0.308 0.059-0.467 0.13 -0.771 0.352-3.586 1.015-4.404 0.657 -0.193-0.085-0.622-0.152-1.16-0.204 -0.362-0.315-1.023-1.138-1.332-1.328 -1.215-0.751-1.851-2.069-1.926-3.472 -0.163-2.955 1.373-6.245 4.861-7.528 -3.578-1.004-4.064 4.863-6.408 6.172 -1.402 0.783-2.741 1.479-2.716 3.229 0.008 0.579 0.078 1.419 0.34 2.122 -0.421-0.591-0.699-1.125-0.739-0.653 -0.342 3.979 3.522 2.884 5.042 3.158 1.255 0.227 3.412 0.544 4.459 0.563 1.137 0.02 2.858-0.377 3.981-0.563 1.087-0.181 2.985 0.037 4.381-0.59 0.824-0.371 2.006-0.612 2.006-2.211l-0.402 0.326C109.855 118.916 109.878 118.874 109.895 118.829z" fill="#e1ac8f" stroke-width="none" opacity="1" stroke="none"/>
              <path id="SvgjsPath3753" d="M90.642 116.322c0.15-0.48 0.371-0.961 0.73-1.324 -0.631 1.095-0.719 2.661-0.152 3.799 0.697 1.399 1.94 1.104 3.131 0.563 1.191-0.54 1.188-0.938 2.426-0.526 0.963 0.319 1.737 0.795 2.797 0.793 1.132-0.002 1.977-0.471 3.03-0.798 1.278-0.38 2.357-0.162 3.559 0.378 1.13 0.509 2.426 1.15 3.301-0.117 0.773-1.148 0.69-2.922 0.017-4.092 1.51 1.542 1.145 5.938-1.745 5.384 -0.397-0.08-1.098-0.563-1.451-0.469 -0.64 0.175-1.445 0.007-2.091-0.054 -1.175-0.112-2.195-0.108-3.312 0.174 -0.429 0.1-0.869 0.158-1.309 0.154 -0.525-0.007-1.057-0.268-1.556-0.237 -1.4 0.086-1.984-0.214-3.39-0.124 -1.197 0.077-1.955 1.13-3.142 0.177C90.436 119.125 90.275 117.566 90.642 116.322 90.719 116.078 90.497 116.814 90.642 116.322zM101.211 107.662c0.557 0.115 1.063 0.367 1.531 0.684 -1.391-2.209-4.931-1.408-6.339 0.345C97.843 107.926 99.562 107.296 101.211 107.662 101.478 107.719 100.678 107.543 101.211 107.662z" fill="#c27b55" stroke-width="none" opacity="1" stroke="none"/>
              <path id="SvgjsPath3754" d="M93.079 117.678c-0.216-1.586 0.406-3.049-0.995-1.972C91.214 116.375 93.418 120.168 93.079 117.678z" fill="#ffe4d6" stroke-width="none" opacity="1" stroke="none"/>
            </g>
          </g>
          <g id="svga-group-beardwrap" transform="matrix(1,0,0,1,0,0)">
            <g id="svga-group-beard-single-move" transform="matrix(1,0,0,1,0,0)">
              <g id="svga-group-beard-single" transform="matrix(1,0,0,1,0,0)">
                <path id="SvgjsPath3509" d="M100,18.13L100,18.13L100,18.13L100,18.13z" fill="#2a232b" stroke-width="none" opacity="1"/>
              </g>
            </g>
          </g>
          <g id="svga-group-mustache-single-move" transform="matrix(1,0,0,1,0,0)">
            <g id="svga-group-mustache-single" transform="matrix(1,0,0,1,0,0)">
              <path id="SvgjsPath3661" d="M100 124.48l-2.32 3.2c-0.4 0.56-1.04 0.9-1.73 0.92l-17.27 0.56c-0.23 0.01-0.44-0.14-0.5-0.37s0.03-0.46 0.23-0.58l3.54-2.05c0.45-0.26 0.96-0.42 1.48-0.46L100 124.48zM100 124.48l2.32 3.2c0.4 0.56 1.04 0.9 1.73 0.92l17.27 0.56c0.23 0.01 0.44-0.14 0.5-0.37 0.06-0.22-0.03-0.46-0.23-0.58l-3.54-2.05c-0.45-0.26-0.96-0.42-1.48-0.46L100 124.48z" fill="#4e4341" stroke-width="none" opacity="1" stroke="none"/>
            </g>
          </g>
          <g id="svga-group-hair-front" transform="matrix(1,0,0,1,0,0)">
            <path id="SvgjsPath3657" d="M142.99 18.11c9.29 3.25 23.25 29 19.24 55.05 -1.43 9.27-0.15 4.2-6.29 19.67l-6.49 0.3c-1.51-4.33 5.35-18.12 2.83-29.88C149.96 52.42 153.16 34.55 142.99 18.11zM57.01 18.11c-9.29 3.25-23.25 29-19.24 55.05 1.43 9.27 0.15 4.2 6.29 19.67l6.49 0.3C52.06 88.8 45.2 75 47.72 63.24 50.04 52.42 46.84 34.55 57.01 18.11z" fill="#4e4341" stroke-width="none" opacity="1" stroke="none"/>
            <path id="SvgjsPath3658" d="M156.74 35.09c-3.37-4.72-6.83-9.29-11.32-12.53 -0.71-1.49-1.51-2.98-2.42-4.45C147.32 19.63 152.67 26.04 156.74 35.09zM161.46 63.82c0 0.01 0.01 0.02 0.01 0.03C161.56 63.96 161.57 63.98 161.46 63.82zM154.92 63.27c-1.54-4.02-1.21-5.99-1.78-10.23 6.16 6.88 8.25 10.84 9.19 12.14 -1.62-4.79-6.37-10.62-9.3-12.72 -0.62-7.45-1.57-10.44-2.94-14.98 1.11 0.84 7.88 8.07 11.16 14 -2.4-8.41-10.33-13.93-11.33-14.29l-0.05 0.11c1.63 9.99 1 19.29 2.42 25.93 2.52 11.76-4.34 25.56-2.83 29.88 0.44-0.86 4.33-13.8 4.58-17.12 0.2-2.67 1.56-7.46 1.01-11.92 2.02 2.52 4.07 6.34 6.71 10.92C160.32 69.97 157.6 65.55 154.92 63.27zM57.01 18.11c-0.91 1.47-1.71 2.96-2.42 4.45 -4.5 3.24-7.95 7.8-11.32 12.53C47.33 26.04 52.68 19.63 57.01 18.11zM38.53 63.85c0-0.01 0.01-0.02 0.01-0.03C38.43 63.98 38.44 63.96 38.53 63.85zM38.26 75c2.63-4.58 4.68-8.41 6.71-10.92 -0.54 4.46 0.81 9.25 1.01 11.92 0.25 3.33 4.14 16.26 4.58 17.12C52.06 88.8 45.2 75 47.72 63.24c1.42-6.64 0.79-15.94 2.42-25.93l-0.05-0.11c-1 0.35-8.93 5.87-11.33 14.29 3.27-5.93 10.05-13.16 11.16-14 -1.37 4.54-2.32 7.54-2.94 14.98 -2.93 2.1-7.68 7.93-9.3 12.72 0.94-1.3 3.04-5.26 9.19-12.14 -0.57 4.24-0.24 6.21-1.78 10.23C42.4 65.55 39.68 69.97 38.26 75z" fill="#3f312e" stroke-width="none" opacity="1" stroke="none"/>
            <path id="SvgjsPath3659" d="M155.94 92.83c2.53-7.48 4.06-9.89 4.99-17.47 2.24-20.53-1.92-31.89-1.92-31.89 -2.25-7.64-8.02-22.11-16.02-25.2 9.45 3.14 22.48 23.89 19.5 54.51C161.81 81.36 158.57 86.18 155.94 92.83zM44.06 92.83c-2.53-7.48-4.06-9.89-4.99-17.47 -2.24-20.53 1.92-31.89 1.92-31.89 2.25-7.64 8.02-22.11 16.02-25.2 -9.45 3.14-22.48 23.89-19.5 54.51C38.19 81.36 41.43 86.18 44.06 92.83z" fill="#201311" stroke-width="none" opacity="1" stroke="none"/>
            <path id="SvgjsPath3660" d="M77.4 5c-0.22-0.54 0.04-1.16 0.58-1.39C84.81 0.75 91.03-0.59 100-0.6c8.18-0.01 14.61 1.55 23 4.65 0.57 0.21 0.84 0.87 0.57 1.42 -4.1 8.37-12.76 14.57-23.03 14.57C90.22 20.04 81.11 14.19 77.4 5z" fill="#564d4c" stroke-width="none" opacity="1" stroke="none"/>
          </g>
          <g id="svga-group-glasses-single-move" transform="matrix(1,0,0,1,0,0)">
            <g id="svga-group-glasses-single" transform="matrix(1,0,0,1,0,0)">
              <path id="SvgjsPath3746" d="M149.6 87.26c0 9.03-7.39 16.52-16.42 16.52h-3.7c-3.38 0-9.1-2.02-14.66-7.3 -3.04-2.88-7.19-10.12-8.29-14.36 -0.51-1.96 0.43-4.67 0.7-5.17l2.69-5.08c0.48-0.91 2.3-1.92 3.33-2.08 2.79-0.43 10.45-1.09 10.45-1.09 5.18 0.27 11.62 0.61 17.11 3.1 5.88 2.67 8.79 7.34 8.79 14.1V87.26zM50.4 85.9c0-6.77 2.91-11.43 8.79-14.1 5.48-2.49 11.93-2.83 17.11-3.1 0 0 7.67 0.66 10.45 1.09 1.02 0.16 2.84 1.16 3.33 2.08l2.69 5.08c0.27 0.5 1.21 3.21 0.7 5.17 -1.11 4.24-5.26 11.48-8.29 14.36 -5.56 5.28-11.28 7.3-14.66 7.3h-3.7c-9.03 0-16.42-7.5-16.42-16.52V85.9z" fill="#5b1d0d" stroke-width="none" opacity="0.6"/>
              <path id="SvgjsPath3747" d="M149.6 87.26c0 0.65-0.05 1.29-0.12 1.92 -12.99-3.95-27.98-6.71-43.09-8.52 0.04-1.65 0.63-3.34 0.84-3.72l2.69-5.08c0.48-0.91 2.3-1.92 3.33-2.08 2.79-0.43 10.45-1.09 10.45-1.09 5.18 0.27 11.62 0.61 17.11 3.1 5.88 2.67 8.79 7.34 8.79 14.1V87.26zM90.09 71.86c-0.48-0.91-2.3-1.92-3.33-2.08 -2.79-0.43-10.45-1.09-10.45-1.09 -5.18 0.27-11.62 0.61-17.11 3.1 -3.18 1.45-5.49 3.48-6.94 6.11 12.16-0.23 26.49 0.18 41.23 1.44 -0.2-1.14-0.55-2.12-0.7-2.4L90.09 71.86z" fill="#ffffff" stroke-width="none" opacity="0.1"/>
              <path id="SvgjsPath3748" d="M104.15 81.18l4.15 9.35L107.37 91c-2.02-0.56-2.97-6.13-4.37-8.05 -0.96-1.32-5.05-1.32-6.01 0 -1.4 1.92-2.36 7.49-4.37 8.05l-0.93-0.47 4.15-9.35C96.77 79.1 103.22 79.09 104.15 81.18zM93.75 71.62c0.14-0.63 0.7-1.07 1.35-1.07 3.54 0 6.26 0 9.8 0 0.65 0 1.2 0.45 1.35 1.07l0.12 0.54 2.52-4.34c-2.58 0-15.21 0-17.79 0l2.52 4.34L93.75 71.62zM95.55 75.4v1.36c2.17-1.11 6.73-1.11 8.89 0V75.4C102.12 74.22 97.91 74.2 95.55 75.4z" fill="#170904" stroke-width="none" opacity="1"/>
              <path id="SvgjsPath3749" d="M121.06 67.31l-10.59-0.21c-1.53-0.03-2.95 0.8-3.67 2.16l-2.69 5.08c-0.37 0.69-0.56 1.46-0.56 2.24 0.5 19.18 18.71 28.31 25.93 28.31 0 0 2.46 0 3.7 0 9.74 0 17.64-7.9 17.64-17.64V85.9C150.82 69.7 135.43 67.79 121.06 67.31zM149.6 87.26c0 9.03-7.39 16.52-16.42 16.52h-3.7c-3.38 0-9.1-2.02-14.66-7.3 -3.04-2.88-7.19-10.12-8.29-14.36 -0.51-1.96 0.43-4.67 0.7-5.17l2.69-5.08c0.48-0.91 2.3-1.92 3.33-2.08 2.79-0.43 9.01-1.09 13.26-0.87 2.74 0.14 8.82 0.39 14.3 2.88 5.88 2.67 8.79 7.34 8.79 14.1V87.26zM49.18 85.9v1.36c0 9.74 7.9 17.64 17.64 17.64 1.24 0 3.7 0 3.7 0 7.23 0 25.43-9.13 25.93-28.31 0-0.78-0.19-1.55-0.56-2.24l-2.69-5.08c-0.72-1.35-2.14-2.19-3.67-2.16l-10.59 0.21C64.57 67.79 49.18 69.7 49.18 85.9zM50.4 85.9c0-6.77 2.91-11.43 8.79-14.1 5.48-2.49 11.56-2.73 14.3-2.88 4.25-0.22 10.48 0.44 13.26 0.87 1.02 0.16 2.84 1.16 3.33 2.08l2.69 5.08c0.27 0.5 1.21 3.21 0.7 5.17 -1.11 4.24-5.26 11.48-8.29 14.36 -5.56 5.28-11.28 7.3-14.66 7.3h-3.7c-9.03 0-16.42-7.5-16.42-16.52V85.9z" fill="#26120b" stroke-width="none" opacity="1"/>
              <path id="SvgjsPath3750" d="M106.33 75.78c-0.4 0.4-1.04 0.4-1.44 0s-0.4-1.04 0-1.44 1.04-0.4 1.44 0S106.73 75.38 106.33 75.78zM109.44 69.94c0-0.56-0.46-1.02-1.02-1.02s-1.02 0.46-1.02 1.02 0.46 1.02 1.02 1.02S109.44 70.5 109.44 69.94zM94.39 74.04c0.56 0 1.02 0.46 1.02 1.02s-0.46 1.02-1.02 1.02 -1.02-0.46-1.02-1.02C93.37 74.49 93.82 74.03 94.39 74.04zM90.85 70.64c0.39 0.41 1.04 0.42 1.44 0.03s0.42-1.04 0.03-1.44c-0.39-0.41-1.04-0.42-1.44-0.03S90.46 70.23 90.85 70.64z" fill="#351d15" stroke-width="none" opacity="1"/>
              <path id="SvgjsPath3751" d="M156 83.47l-6 1.58 -0.4-3.78 6.4-1V83.47zM108.68 70.81v-1.79h-0.51v1.79H108.68zM106.43 75.5l-1.27-1.27 -0.36 0.36 1.27 1.27L106.43 75.5zM44 80.28l6.4 1L50 85.06l-6-1.58V80.28zM90.79 69.49l1.26 1.26 0.36-0.36 -1.26-1.26L90.79 69.49zM93.5 75.31h1.8v-0.51h-1.8V75.31z" fill="#170904" stroke-width="none" opacity="1"/>
            </g>
          </g>
        </g>
      </g>
    </g>
    <rect id="SvgjsRect3476" width="200" height="15" x="0" y="185" fill="#ecf0f1" opacity="0.5" style="display: none;"/>
    <text id="SvgjsText3477" font-family="Roboto, Helvetica, Arial, sans-serif" font-size="10px" text-anchor="start" font-weight="400" anchor="start" fill="#333333" x="38.76297378540039" y="182.42838287353516" style="display: none;">
      <tspan id="SvgjsTspan3478" dy="13" x="38.76297378540039">Created on svgAvatars.com</tspan>
    </text>
  </g>
</svg>
